<?xml version="1.0" encoding="utf-8"?>
<!-- Generator: Adobe Illustrator 17.1.0, SVG Export Plug-In . SVG Version: 6.00 Build 0)  -->
<!DOCTYPE svg PUBLIC "-//W3C//DTD SVG 1.1 Basic//EN" "http://www.w3.org/Graphics/SVG/1.1/DTD/svg11-basic.dtd">
<svg version="1.1" baseProfile="basic" id="Layer_1"
	 xmlns="http://www.w3.org/2000/svg" xmlns:xlink="http://www.w3.org/1999/xlink" x="0px" y="0px" viewBox="0 0 612 792"
	 xml:space="preserve">
<g id="XMLID_313_" opacity="0.32">
	<g>
		<image overflow="visible" width="563" height="422" xlink:href="1C68603.png"  transform="matrix(1 0 0 1 46 178)">
		</image>
	</g>
</g>
<radialGradient id="XMLID_2_" cx="1228.033" cy="294.2169" r="767.42" gradientTransform="matrix(0.3187 0 0 0.3187 -33.8241 231.3136)" gradientUnits="userSpaceOnUse">
	<stop  offset="5.376341e-003" style="stop-color:#20AEE4"/>
	<stop  offset="1" style="stop-color:#01476D"/>
</radialGradient>
<path id="XMLID_299_" opacity="0.25" fill="url(#XMLID_2_)" d="M500.8,430.2c0,0-11-26-40.3-9.2c-29.3,16.9-31.7,34-87.9,17.5
	s-67.1-3.1-88.6,3.4c-7.6,2.3-41.9,7.8-82.6,7.1c-48-0.9-78.8-16-113.3-5.5c-34.5,10.6-41.9-73.3-41.9-73.3L34.7,201.1h645.8
	c0,0-16.5,51.1-53.6,66.6c-37,15.5-31.7,26-35.2,52.1c-3.4,26-74.6,43.6-69.6,81.8C527.2,439.8,500.8,430.2,500.8,430.2z"/>
<radialGradient id="XMLID_3_" cx="1661.0106" cy="415.2701" r="1022.0168" gradientTransform="matrix(0.3187 0 0 0.3187 -33.8241 231.3136)" gradientUnits="userSpaceOnUse">
	<stop  offset="5.376341e-003" style="stop-color:#20AEE4"/>
	<stop  offset="1" style="stop-color:#01476D"/>
</radialGradient>
<path id="XMLID_275_" opacity="0.25" fill="url(#XMLID_3_)" d="M70.5,380.2c4,2.5,45.5,53.4,87.3,29.7c42.4-24,104.8,6.8,149.4-15.2
	c42-20.7,63.1-13.8,91.2-3.1c28.4,10.8,74.5-12.7,111.1,6.2c36.6,18.9,38.1-12.1,38.1-12.1s-10.2-27.1,19.4-46.1
	c29.6-19,15.1-40.8,23.3-75.5s88.4-86.1,88.4-86.1L51.4,210.7L70.5,380.2z"/>
<radialGradient id="XMLID_4_" cx="1845.6779" cy="-164.8986" r="1384.4078" fx="1695.7776" fy="-153.5388" gradientTransform="matrix(0.3547 0 0 0.4721 -122.7218 221.1336)" gradientUnits="userSpaceOnUse">
	<stop  offset="0" style="stop-color:#01476D"/>
	<stop  offset="5.600143e-002" style="stop-color:#066684"/>
	<stop  offset="0.4285" style="stop-color:#0A7FA3"/>
	<stop  offset="0.6947" style="stop-color:#1E627A"/>
	<stop  offset="0.827" style="stop-color:#0088A8"/>
</radialGradient>
<path id="XMLID_270_" fill="url(#XMLID_4_)" d="M-18,227.8c0,0-38.6,132.8,15.4,123.8c54-8.9,82.8,3.7,103.4-32.4
	s76.8-56.4,113.5-43.4c36.8,13.1,69.1,29,99.1,3.8c5.9-4.9,11.8-9.8,17.9-14.3c6.3-4.6,12.8-8.7,19.6-12c6.9-3.4,14.3-5.6,21.6-6.5
	c8-1,16-0.3,23.9,2c9.4,2.6,18.3,7.6,26.7,13.7c10.8,7.8,20.6,17.7,29.8,28.4c4.9,5.6,9.5,11.5,14.1,17.7c3,4.2,5.6,8.9,9.4,12
	c11.3,9.3,26,9.2,38.6,6.8c5.9-1,12.3-3.1,17-8.3c4.5-5.2,5.4-12.6,3.8-20c-1.9-8.7-6.3-16.6-10.5-23.4
	c-13.1-20.9-47.7-55.3,21.8-104.9c24.5-18.5,20.5-73.9,28.6-109.8c8.1-35.8,74.1-105.2,74.1-105.2S143.8-100,140.5-100.8
	c-3.3-0.8-192.3,138-192.3,138L-18,227.8z"/>
<polygon id="XMLID_268_" fill="none" points="608.2,219.1 46.8,178.6 46.8,539.1 608.2,579.6 "/>
<polygon id="XMLID_264_" fill="#FEA7AF" points="140.5,265.4 141,264.6 141.8,264.1 141,263.6 140.5,262.8 140.1,263.6 139.2,264.1 
	140.1,264.6 "/>
<polygon id="XMLID_256_" opacity="0.29" fill="#FEA7AF" points="267,278 267.4,277.2 268.2,276.7 267.4,276.3 267,275.5 
	266.5,276.3 265.7,276.7 266.5,277.2 "/>
<polygon id="XMLID_255_" opacity="0.29" fill="#FEA7AF" points="277.4,241 277.8,240.2 278.7,239.7 277.8,239.3 277.4,238.5 
	276.9,239.3 276.1,239.7 276.9,240.2 "/>
<polygon id="XMLID_250_" fill="#FFFFFF" points="203.5,270.9 204.5,268.9 206.6,267.7 204.5,266.7 203.5,264.6 202.3,266.7 
	200.3,267.7 202.3,268.9 "/>
<polygon id="XMLID_246_" opacity="0.33" fill="#FEA7AF" points="334.1,266.9 334.6,266 335.5,265.5 334.6,265 334.1,264.1 
	333.6,265 332.7,265.5 333.6,266 "/>
<polygon id="XMLID_245_" opacity="0.33" fill="#FEA7AF" points="357.6,238.9 358.1,238 359,237.5 358.1,237 357.6,236.1 357.1,237 
	356.1,237.5 357.1,238 "/>
<polygon id="XMLID_151_" fill="none" points="608.2,219.1 46.8,178.6 46.8,539.1 608.2,579.6 "/>
<text transform="matrix(1 0 0 1 263 162)" fill="#FFFFFF" font-family="'TimesNewRomanPSMT'" font-size="12">*</text>
<text transform="matrix(1 0 0 1 315 222)" fill="#FFFFFF" font-family="'TimesNewRomanPSMT'" font-size="12">*</text>
<text transform="matrix(1 0 0 1 82 152.0002)"><tspan x="0" y="0" fill="#FFFFFF" font-family="'TimesNewRomanPSMT'" font-size="12">*</tspan><tspan x="0" y="100.8" fill="#FFFFFF" font-family="'TimesNewRomanPSMT'" font-size="12">       </tspan><tspan x="0" y="115.2" fill="#FFFFFF" font-family="'TimesNewRomanPSMT'" font-size="12"> </tspan><tspan x="0" y="144" fill="#FFFFFF" font-family="'TimesNewRomanPSMT'" font-size="12"> </tspan><tspan x="0" y="158.4" fill="#FFFFFF" font-family="'TimesNewRomanPSMT'" font-size="12">*                                                                                                *</tspan><tspan x="0" y="201.6" fill="#FFFFFF" font-family="'TimesNewRomanPSMT'" font-size="12"> </tspan><tspan x="0" y="230.4" fill="#FFFFFF" font-family="'TimesNewRomanPSMT'" font-size="12">*</tspan></text>
<text transform="matrix(1 0 0 1 408.667 72)" fill="#FFFFFF" font-family="'TimesNewRomanPSMT'" font-size="12">*</text>
<text transform="matrix(1 0 0 1 262 38.6665)" fill="#FFFFFF" font-family="'TimesNewRomanPSMT'" font-size="12">*</text>
<text transform="matrix(1 0 0 1 158.6665 103.3335)" fill="#FFFFFF" font-family="'TimesNewRomanPSMT'" font-size="12">*</text>
</svg>
